<?xml version="1.0" encoding="utf-8"?>
<!-- Svg Vector Icons : http://www.onlinewebfonts.com/icon -->
<!DOCTYPE svg PUBLIC "-//W3C//DTD SVG 1.1//EN" "http://www.w3.org/Graphics/SVG/1.1/DTD/svg11.dtd">
<svg version="1.1" xmlns="http://www.w3.org/2000/svg" xmlns:xlink="http://www.w3.org/1999/xlink" x="0px" y="0px" viewBox="0 0 256 256" enable-background="new 0 0 256 256" xml:space="preserve">
<metadata> Svg Vector Icons : http://www.onlinewebfonts.com/icon </metadata>
<g><g><g><path fill="#000000" d="M45.2,53.8c-3.9,1.7-6.7,5.2-7.4,9.1l-0.3,1.8H23.8H10v3.6v3.6h27.1h27.1v-3.6v-3.6h-9.8c-10.9,0-11.2-0.1-8.1-3.1l1.6-1.6h59c53,0,59.1,0.1,59.8,0.8c0.4,0.4,0.8,0.9,0.8,1c0,0.3-13.3,75.8-13.6,77.1l-0.2,1.1H91.9c-60.2,0-61.9,0-61.9-0.9c0-0.5,0.1-1.6,0.3-2.4l0.3-1.5h16.8h16.8v-3.6V128H37.1H10v3.6v3.6h6.7h6.7l-0.3,1.3c-1.1,5.1-6,34-6,35.4c0,2.4,1.6,5.4,3.6,6.9l1.8,1.4l11.7,0.2l11.7,0.2l0.3,4.1c0.6,8.9,6.1,15.6,14.5,17.8c8.5,2.2,17.8-0.7,24.8-7.6c3.8-3.8,5.7-6.7,7.2-11.2l1-3.1l33.6-0.1l33.6-0.1v2.3c0,9.8,6.2,17.8,15.7,20c1.6,0.4,4,0.5,6.4,0.3c10.9-0.7,21.2-8.9,24.7-19.4l1-3.3h10.7c10.3,0,10.9,0,13.2-1.1c2.6-1.2,5.1-3.9,5.9-6.2c0.2-0.8,2.1-10.8,4.1-22.1c3-17.1,3.6-21.3,3.4-24.3c-0.2-3.3-0.8-4.9-8.9-24.4c-4.8-11.5-9-21.7-9.6-22.7c-0.5-1-1.8-2.6-2.8-3.5l-2-1.8h-25c-20,0-25-0.1-25-0.6c0-0.3,0.4-3,1-6c0.8-4.6,0.9-5.8,0.4-7.6c-0.7-2.9-2.4-4.9-4.9-6.2l-2-1h-60C48.1,52.8,47.3,52.8,45.2,53.8z M221.9,84.2c0.7,1.4,1.3,2.8,1.3,3c0,0.2-8.8,0.4-19.5,0.4c-18.5,0-19.7,0-21.4,1c-3.2,1.6-3.7,2.9-6.3,17.7c-1.4,8.1-2.3,14-2.1,14.9c0.1,0.9,0.7,2.1,1.3,2.8c2.1,2.7,1.7,2.6,33.9,2.6h29.7v1.7c0,1.3-5.7,34.8-6.9,41.2c-0.1,0.7-0.8,1.8-1.5,2.5l-1.2,1.2h-10.3h-10.4l-0.3-2c-1.3-8.6-10.3-15.6-20-15.6c-3,0-8.9,1.7-12.3,3.4c-3.8,2-10.1,8.3-11.8,11.7l-1.2,2.5l-34.6,0H93.9l-0.6-2.5c-1.9-7.9-8.3-13.5-16.9-14.8c-10.2-1.5-22.1,5.1-27.4,15.2l-1,2H36.4c-10.4,0-11.7-0.1-11.9-0.8c-0.1-0.5,0.7-6.3,1.8-13l2.1-12.2l65.7-0.1l65.7-0.1l5.4-30.6c2.9-16.8,5.5-31,5.6-31.6c0.1-0.6,0.8-1.6,1.4-2.3l1.2-1.2l23.6,0.1l23.6,0.1L221.9,84.2z M199.8,104.2c0.3,5.1,0.6,10.6,0.6,12.2l0,3h-9.5c-5.2,0-9.5-0.2-9.5-0.4c0-1,3.9-23.5,4.1-23.9c0.1-0.2,3.3-0.4,7-0.3l6.8,0.1L199.8,104.2z M227.8,98.3c0.8,2,3.1,7.6,5.1,12.4l3.6,8.7h-14.4h-14.4l-0.6-11.3c-0.3-6.2-0.7-11.8-0.8-12.4l-0.2-1h10.1h10.1L227.8,98.3z M77.1,163.3c4.6,1,8.6,5.1,9.6,9.8c1.6,7.7-3.8,17-12.1,21.1c-3,1.5-3.7,1.6-7.9,1.6c-5,0-7.1-0.8-9.9-3.6c-8.5-8.5-1.1-25.4,12.6-28.8C72.3,162.6,74.1,162.6,77.1,163.3z M195,164.4c8.9,4.4,9.1,17.2,0.3,25.7c-6.6,6.5-17.1,7.7-22.9,2.8c-3.2-2.8-4.1-4.9-4.1-9.9c0-3.9,0.1-4.6,1.5-7.5C174.6,165.3,186.2,160.2,195,164.4z"/><path fill="#000000" d="M18.6,84v3.6h26.9h26.9V84v-3.6H45.5H18.6V84z"/><path fill="#000000" d="M27.6,99.9v3.3h27.1h27.1v-3.3v-3.3H54.7H27.6V99.9z"/><path fill="#000000" d="M18.6,115.9v3.6h26.9h26.9v-3.6v-3.6H45.5H18.6V115.9z"/></g></g></g>
</svg>