<svg version="1.1" id="Layer_1" xmlns="http://www.w3.org/2000/svg" xmlns:xlink="http://www.w3.org/1999/xlink" viewBox="0 0 1024 1024" xml:space="preserve">
<path fill="#222222" opacity="1.000000" stroke="none"
	d="
M372.994904,398.021637
	C373.110443,371.037720 380.719086,346.312622 396.287140,323.721710
	C383.424530,313.319275 376.700165,300.083740 375.105621,284.451721
	C374.394379,277.479309 374.985443,270.374023 374.985443,262.919922
	C384.211029,269.411163 392.027802,275.828949 400.692291,280.755981
	C409.814758,285.943481 419.725800,289.755066 429.357941,294.019501
	C430.382690,294.473206 432.120605,294.374969 433.067108,293.788879
	C449.640961,283.526398 468.103516,279.297180 487.098724,276.986023
	C503.158905,275.031982 519.151611,275.458893 535.265381,277.754303
	C550.990417,279.994385 566.533997,282.931641 580.185120,290.939545
	C588.052063,295.554413 594.319763,294.127960 600.838562,290.353271
	C613.117676,283.243134 625.182617,275.746582 637.108826,268.057373
	C639.580139,266.464020 641.059082,263.331573 642.995422,260.908447
	C643.546814,261.329498 644.098267,261.750549 644.649719,262.171631
	C644.649719,268.977814 645.540710,275.927979 644.469177,282.561035
	C642.041748,297.587128 635.878296,311.036743 624.954834,322.065125
	C624.071228,322.957184 623.991028,325.777649 624.726318,326.967102
	C633.079956,340.479858 640.017517,354.586975 642.612976,370.395905
	C644.142273,379.711121 645.527893,389.127563 645.883545,398.539825
	C646.427673,412.938812 646.026367,427.373535 646.026367,442.376862
	C642.991882,442.597168 640.227661,443.072449 637.490051,442.950562
	C623.189819,442.313629 609.476013,445.361938 595.846863,449.177765
	C578.846191,453.937531 563.159668,461.254333 549.384277,472.445312
	C532.591492,486.087433 520.531189,502.737640 517.023376,524.530762
	C512.281372,553.991394 519.729797,580.571228 537.780151,603.963440
	C545.202759,613.582764 554.228760,621.962524 562.487061,630.941345
	C564.123352,632.720398 565.584595,634.660217 566.516113,637.324951
	C559.144409,635.069885 551.666931,633.108643 544.423035,630.498840
	C529.160828,625.000305 513.729370,619.821838 498.914825,613.273560
	C484.698730,606.989868 470.992798,599.467468 457.391388,591.898743
	C440.078369,582.264648 425.423187,569.126709 412.192017,554.554565
	C400.207062,541.354980 390.072906,526.750122 384.935760,509.383636
	C381.337402,497.219269 378.266418,484.892426 375.238190,472.569763
	C374.340424,468.916504 374.261688,465.038788 374.028625,461.250336
	C373.591461,454.143097 373.315430,447.025970 373.025452,438.985168
	C373.050629,424.712158 373.022766,411.366913 372.994904,398.021637
M500.980865,437.791901
	C503.536835,442.233551 506.092773,446.675232 509.055725,451.824158
	C512.364807,446.251373 515.121277,441.609192 518.330139,436.465271
	C519.915344,433.707458 521.500610,430.949677 523.487000,427.923187
	C523.745972,427.687134 523.855103,427.395081 524.127930,426.602936
	C524.168518,426.426361 524.209045,426.249756 524.680115,425.817352
	C525.003418,425.243256 525.326721,424.669159 526.010437,423.482819
	C527.489929,419.994446 529.528381,419.685547 532.573669,421.908112
	C535.762573,424.235504 539.061035,426.584961 542.645325,428.170380
	C565.149780,438.124298 593.599243,433.304962 609.036316,412.210236
	C618.323059,399.519867 620.529114,385.033875 618.262756,369.756287
	C616.119080,355.306488 608.216919,344.031006 597.724304,334.470551
	C595.940613,332.845337 592.540405,331.877106 590.142334,332.249512
	C582.450928,333.443878 574.756958,334.996857 567.300232,337.208435
	C561.347595,338.973938 555.740295,341.904083 549.600891,344.899994
	C545.018921,347.649109 540.436951,350.398224 535.462952,353.345825
	C535.270935,353.571381 535.116333,353.820190 535.053650,354.008362
	C535.053650,354.008362 535.141663,354.055878 534.406189,354.022675
	C533.504517,354.385529 532.423828,354.541412 531.728638,355.142914
	C523.888794,361.925659 517.333008,369.708099 513.028809,379.259308
	C512.137268,381.237732 510.803314,383.016785 509.290741,385.520935
	C508.009674,383.529205 507.200470,382.517700 506.652527,381.380341
	C501.996979,371.717468 495.854889,363.084778 487.609192,356.263245
	C482.880280,352.351044 477.316681,349.447754 471.595703,345.636292
	C471.363007,345.625031 471.130341,345.613739 470.412537,345.166962
	C469.204987,344.674927 467.997467,344.182892 466.614441,343.072662
	C465.093506,342.124634 463.688080,340.720947 462.033203,340.301422
	C449.997040,337.250458 437.924286,334.337982 425.818787,331.575806
	C424.630676,331.304718 422.835571,331.978821 421.841888,332.824677
	C403.453430,348.476654 396.447754,368.497742 400.694611,392.012939
	C403.669678,408.486359 413.290894,420.323151 428.606689,427.781281
	C442.370178,434.483490 456.187164,435.433380 470.272247,429.864471
	C477.090393,427.168762 483.497498,423.433472 490.284821,420.072723
	C491.278595,420.841431 492.683685,421.928223 493.881042,423.563660
	C494.532928,425.133911 495.184814,426.704193 495.976135,428.950378
	C497.600647,431.664337 499.225159,434.378296 500.980865,437.791901
z"/>
<path fill="#222121" opacity="1.000000" stroke="none"
	d="
M646.005005,644.979065
	C646.285828,648.162842 646.566589,651.346619 646.437378,654.973267
	C644.638611,654.918823 643.164124,654.583374 641.874207,653.899597
	C625.318176,645.123413 612.900085,632.080872 603.155884,615.920471
	C594.913696,601.207703 590.708801,585.537476 588.127930,569.302856
	C586.130188,587.843506 589.144104,605.435730 597.928955,622.341736
	C601.754456,628.315552 605.086426,634.302429 609.409729,639.458069
	C619.311890,651.266724 632.210449,659.104309 646.084473,665.443665
	C646.084473,669.702576 646.084473,673.961548 646.084473,679.438721
	C638.911804,675.538757 632.647644,672.565613 626.827148,668.889893
	C606.151428,655.832947 586.370605,641.674377 569.284302,623.910645
	C551.270020,605.182129 538.583679,583.494019 535.313416,557.805481
	C531.958862,531.454895 538.035767,507.241913 557.796143,487.508698
	C575.702209,469.627289 597.074707,459.029785 621.731018,455.057037
	C629.005981,453.884857 636.643738,454.963989 644.973999,455.190491
	C645.889832,460.516174 645.995361,465.662781 645.996399,470.809357
	C646.008545,528.865906 646.004639,586.922485 646.005005,644.979065
z"/>
<path fill="#EDC14E" opacity="1.000000" stroke="none"
	d="
M469.987427,672.839478
	C463.065094,670.784058 455.921844,669.269409 449.270294,666.551392
	C438.223175,662.037292 427.847443,656.234741 420.600708,646.310913
	C426.251709,646.653076 431.567474,648.295532 436.690979,647.828674
	C456.565399,646.017456 476.108948,642.229614 495.105957,635.935791
	C502.354797,637.937195 509.727997,639.578369 516.822083,642.027954
	C526.419922,645.342224 535.889587,649.074524 545.234253,653.050537
	C548.699158,654.524841 551.654968,657.195740 554.626465,659.670044
	C550.108337,661.629944 545.889893,663.544617 541.478210,664.754150
	C538.009460,665.705200 534.290405,665.711487 530.702637,666.267090
	C519.409180,668.016113 508.056366,670.644714 496.678711,668.025146
	C490.012115,666.490295 483.626984,667.016846 477.262726,668.357544
	C474.639313,668.910156 472.400909,671.290466 469.987427,672.839478
z"/>
<path fill="#C89025" opacity="1.000000" stroke="none"
	d="
M437.928589,751.205139
	C429.170135,745.177368 421.188232,738.383606 416.236053,728.648438
	C424.053375,727.694763 425.404053,730.856384 427.300934,736.418945
	C427.758301,737.760193 430.432953,739.403809 431.823761,739.190002
	C438.873810,738.105957 445.887268,736.658508 452.813568,734.936279
	C457.842285,733.685913 462.890137,732.185486 467.565308,730.012939
	C469.257446,729.226562 469.891022,726.162231 471.007629,724.137390
	C481.719360,727.726501 492.691315,728.878296 503.904358,727.538818
	C506.052307,727.282227 508.161530,726.701782 510.762634,726.314148
	C511.236664,726.357544 511.645721,726.407166 511.645721,726.407166
	C511.645721,726.407166 511.995056,726.147766 511.995056,726.147766
	C511.995056,726.147766 512.431335,726.008057 513.040588,726.026245
	C515.332153,726.626648 516.974426,727.496460 518.704224,727.736938
	C523.835083,728.450195 529.039795,728.683777 534.139526,729.551880
	C538.103149,730.226685 540.205322,728.835876 540.900940,725.057312
	C542.178711,718.115784 544.747009,716.332764 551.329895,719.060974
	C557.321716,721.544250 562.970642,722.461731 568.912109,719.301086
	C569.714478,718.874268 570.861206,719.094727 571.848511,719.015442
	C570.813782,722.232056 569.779114,725.448730 568.082458,728.899536
	C556.373474,730.703491 556.394592,730.708557 553.863098,741.254883
	C553.231934,743.884583 551.708679,745.572815 548.817505,744.324097
	C538.072327,739.683472 526.812500,737.181396 515.277954,735.450195
	C511.104126,734.823792 509.262177,735.820190 507.877197,739.761353
	C507.043945,742.132629 505.039124,744.597534 502.884613,745.912231
	C493.305817,751.757202 482.282928,750.328857 473.024689,747.304321
	C460.023376,743.056946 449.323883,747.511047 437.928589,751.205139
z"/>
<path fill="#BE8620" opacity="1.000000" stroke="none"
	d="
M438.088562,751.513550
	C449.323883,747.511047 460.023376,743.056946 473.024689,747.304321
	C482.282928,750.328857 493.305817,751.757202 502.884613,745.912231
	C505.039124,744.597534 507.043945,742.132629 507.877197,739.761353
	C509.262177,735.820190 511.104126,734.823792 515.277954,735.450195
	C526.812500,737.181396 538.072327,739.683472 548.817505,744.324097
	C551.708679,745.572815 553.231934,743.884583 553.863098,741.254883
	C556.394592,730.708557 556.373474,730.703491 567.772949,729.094604
	C562.908203,735.322510 558.362000,742.343628 552.337830,747.703735
	C538.695374,759.842346 521.748474,763.347656 503.975922,765.177185
	C485.534790,767.075684 468.076202,764.084351 450.925537,758.001831
	C446.523041,756.440491 442.464905,753.908264 438.088562,751.513550
z"/>
<path fill="#222121" opacity="1.000000" stroke="none"
	d="
M591.998779,697.060791
	C591.834961,684.610840 587.190552,674.113708 580.598328,663.525574
	C582.242004,663.525574 583.409912,663.177185 584.198242,663.577148
	C599.246704,671.210938 614.260193,678.914124 629.240295,686.681091
	C630.174866,687.165710 631.104553,688.165894 631.482910,689.140991
	C636.631226,702.408752 641.681702,715.714478 646.761536,729.024353
	C639.735779,730.889893 634.283447,728.707825 630.277527,722.957520
	C623.294250,712.933044 616.138794,703.028381 608.392822,692.142334
	C610.610657,703.438171 612.631531,713.731323 614.820190,724.878845
	C605.946838,722.004150 598.176941,719.486938 590.457336,716.986023
	C590.987976,710.295532 591.494019,703.915588 591.998779,697.060791
z"/>
<path fill="#E3B341" opacity="1.000000" stroke="none"
	d="
M494.924927,635.593933
	C476.108948,642.229614 456.565399,646.017456 436.690979,647.828674
	C431.567474,648.295532 426.251709,646.653076 420.585815,645.973572
	C417.754242,642.246887 415.361145,638.526123 412.988342,634.089600
	C414.156982,632.291565 415.145081,630.556763 416.478760,630.229126
	C428.629028,627.244568 439.986847,621.267029 452.752289,620.567078
	C453.565125,620.522461 454.322601,619.468018 455.105865,618.883362
	C464.240387,626.903809 475.659576,629.766357 486.923737,632.981140
	C489.533875,633.726074 492.137329,634.494446 494.924927,635.593933
z"/>
<path fill="#D39E31" opacity="1.000000" stroke="none"
	d="
M572.028442,718.648804
	C570.861206,719.094727 569.714478,718.874268 568.912109,719.301086
	C562.970642,722.461731 557.321716,721.544250 551.329895,719.060974
	C544.747009,716.332764 542.178711,718.115784 540.900940,725.057312
	C540.205322,728.835876 538.103149,730.226685 534.139526,729.551880
	C529.039795,728.683777 523.835083,728.450195 518.704224,727.736938
	C516.974426,727.496460 515.332153,726.626648 513.268677,726.005371
	C519.780884,722.868225 526.756470,719.814758 528.296631,711.189026
	C528.726379,708.781921 528.784729,706.308472 529.245483,703.258179
	C529.362732,702.099792 529.247986,701.548828 529.133240,700.997803
	C528.798096,700.525269 528.462952,700.052734 528.560791,699.289795
	C534.421997,699.955811 539.467163,699.077454 544.119629,696.007385
	C544.914917,695.482605 546.032959,695.041016 546.934021,695.145508
	C555.475403,696.135925 563.271606,693.654663 570.908569,690.271179
	C571.486389,690.015198 572.217224,690.104492 572.876892,690.033325
	C574.828247,699.501038 574.738953,708.920532 572.028442,718.648804
z"/>
<path fill="#E3B341" opacity="1.000000" stroke="none"
	d="
M470.321045,673.002747
	C472.400909,671.290466 474.639313,668.910156 477.262726,668.357544
	C483.626984,667.016846 490.012115,666.490295 496.678711,668.025146
	C508.056366,670.644714 519.409180,668.016113 530.702637,666.267090
	C534.290405,665.711487 538.009460,665.705200 541.478210,664.754150
	C545.889893,663.544617 550.108337,661.629944 554.793457,659.987183
	C559.465576,665.047852 563.754272,670.140564 567.709473,675.668701
	C566.299011,676.528687 565.238342,677.268311 564.142151,677.325378
	C557.986938,677.646118 551.819580,678.013916 545.663940,677.910889
	C543.185059,677.869385 540.727722,676.116882 538.256653,676.106812
	C530.614807,676.075500 523.089600,677.065918 516.244629,680.886719
	C513.788940,682.257507 511.385132,683.721252 508.957672,685.142639
	C496.190002,681.150452 483.422333,677.158203 470.321045,673.002747
z"/>
<path fill="#D39E31" opacity="1.000000" stroke="none"
	d="
M454.957062,618.551758
	C454.322601,619.468018 453.565125,620.522461 452.752289,620.567078
	C439.986847,621.267029 428.629028,627.244568 416.478760,630.229126
	C415.145081,630.556763 414.156982,632.291565 412.918213,633.729492
	C408.516113,625.889221 406.712891,617.138367 407.423096,607.363098
	C415.569885,602.854919 423.334473,598.899841 431.099060,594.944824
	C435.733673,597.776917 440.374084,600.599609 444.996582,603.451355
	C445.686401,603.876953 446.226776,604.726746 446.947357,604.889954
	C450.565125,605.709473 451.797180,607.998108 452.173584,611.550964
	C452.416229,613.841370 453.887543,616.001526 454.957062,618.551758
z"/>
<path fill="#DEAD3C" opacity="1.000000" stroke="none"
	d="
M509.139191,685.459473
	C511.385132,683.721252 513.788940,682.257507 516.244629,680.886719
	C523.089600,677.065918 530.614807,676.075500 538.256653,676.106812
	C540.727722,676.116882 543.185059,677.869385 545.663940,677.910889
	C551.819580,678.013916 557.986938,677.646118 564.142151,677.325378
	C565.238342,677.268311 566.299011,676.528687 567.755249,676.032593
	C569.760742,680.386475 571.386963,684.811951 572.945068,689.635376
	C572.217224,690.104492 571.486389,690.015198 570.908569,690.271179
	C563.271606,693.654663 555.475403,696.135925 546.934021,695.145508
	C546.032959,695.041016 544.914917,695.482605 544.119629,696.007385
	C539.467163,699.077454 534.421997,699.955811 528.578125,698.997070
	C524.301941,691.138977 516.729919,688.573608 509.139191,685.459473
z"/>
<path fill="#D39E31" opacity="1.000000" stroke="none"
	d="
M470.689575,723.996094
	C469.891022,726.162231 469.257446,729.226562 467.565308,730.012939
	C462.890137,732.185486 457.842285,733.685913 452.813568,734.936279
	C445.887268,736.658508 438.873810,738.105957 431.823761,739.190002
	C430.432953,739.403809 427.758301,737.760193 427.300934,736.418945
	C425.404053,730.856384 424.053375,727.694763 416.224762,728.293213
	C415.262177,727.070129 414.617462,725.947021 414.157104,724.171997
	C420.519501,722.113220 426.691559,720.678284 432.887024,719.352783
	C433.380890,719.247131 434.149292,719.782166 434.600342,720.216553
	C440.205780,725.614441 446.798157,723.606567 452.756165,721.822021
	C456.581604,720.676270 460.071228,719.120544 464.121918,719.966187
	C466.205109,721.262390 468.288300,722.558594 470.689575,723.996094
z"/>
<path fill="#DEAD3C" opacity="1.000000" stroke="none"
	d="
M463.980591,719.658081
	C460.071228,719.120544 456.581604,720.676270 452.756165,721.822021
	C446.798157,723.606567 440.205780,725.614441 434.600342,720.216553
	C434.149292,719.782166 433.380890,719.247131 432.887024,719.352783
	C426.691559,720.678284 420.519501,722.113220 414.143799,723.835815
	C412.955414,721.705444 411.964691,719.259521 411.293762,716.356201
	C414.350769,714.868591 417.188721,714.045166 419.806641,712.770020
	C428.259399,708.652710 436.631226,704.369263 445.423279,700.119751
	C447.821259,700.726196 449.830170,701.362793 451.839111,701.999329
	C454.117401,708.973694 458.433502,714.538635 463.980591,719.658081
z"/>
<path fill="#E3B341" opacity="1.000000" stroke="none"
	d="
M646.380249,665.126343
	C632.210449,659.104309 619.311890,651.266724 609.409729,639.458069
	C605.086426,634.302429 601.754456,628.315552 598.124634,622.056152
	C599.922974,619.684509 601.568970,617.962830 603.214966,616.241150
	C612.900085,632.080872 625.318176,645.123413 641.874207,653.899597
	C643.164124,654.583374 644.638611,654.918823 646.408203,655.402588
	C646.751404,658.528992 646.713684,661.668945 646.380249,665.126343
z"/>
<path fill="#E3B341" opacity="1.000000" stroke="none"
	d="
M445.034271,700.149841
	C436.631226,704.369263 428.259399,708.652710 419.806641,712.770020
	C417.188721,714.045166 414.350769,714.868591 411.251038,715.973877
	C409.598694,710.999451 408.308807,705.950073 407.535339,700.484741
	C420.379272,700.095825 432.706757,700.122803 445.034271,700.149841
z"/>
<path fill="#C89025" opacity="1.000000" stroke="none"
	d="
M430.960815,594.627808
	C423.334473,598.899841 415.569885,602.854919 407.490204,606.912048
	C408.502502,598.324646 409.829895,589.635132 411.157288,580.945557
	C411.873505,580.717468 412.589691,580.489380 413.305908,580.261230
	C419.144806,584.944458 424.983704,589.627625 430.960815,594.627808
z"/>
<path fill="#EDC14E" opacity="1.000000" stroke="none"
	d="
M445.423279,700.119751
	C432.706757,700.122803 420.379272,700.095825 407.591919,700.068359
	C408.381378,699.693176 409.628906,698.999695 410.880310,698.992676
	C423.349243,698.922729 435.819580,698.905823 448.286957,699.070496
	C449.538818,699.087036 450.773590,700.398376 451.927673,701.554077
	C449.830170,701.362793 447.821259,700.726196 445.423279,700.119751
z"/>
<path fill="#DEAD3C" opacity="1.000000" stroke="none"
	d="
M529.065186,701.327271
	C529.247986,701.548828 529.362732,702.099792 529.308716,702.819214
	C529.092346,702.544067 529.044739,702.100403 529.065186,701.327271
z"/>
<path fill="#D39E31" opacity="1.000000" stroke="none"
	d="
M511.750122,726.092407
	C511.995056,726.147766 511.645721,726.407166 511.645721,726.407166
	C511.645721,726.407166 511.236664,726.357544 511.127197,726.257935
	C511.180237,726.117859 511.342712,726.077454 511.750122,726.092407
z"/>
<path fill="#000000" opacity="1.000000" stroke="none"
	d="
M549.979736,344.317322
	C555.740295,341.904083 561.347595,338.973938 567.300232,337.208435
	C574.756958,334.996857 582.450928,333.443878 590.142334,332.249512
	C592.540405,331.877106 595.940613,332.845337 597.724304,334.470551
	C608.216919,344.031006 616.119080,355.306488 618.262756,369.756287
	C620.529114,385.033875 618.323059,399.519867 609.036316,412.210236
	C593.599243,433.304962 565.149780,438.124298 542.645325,428.170380
	C539.061035,426.584961 535.762573,424.235504 532.573669,421.908112
	C529.528381,419.685547 527.489929,419.994446 525.511475,423.755371
	C523.357178,422.337830 521.701843,420.647766 519.915649,418.639099
	C516.881958,415.031799 514.108704,411.611664 510.991089,408.541077
	C510.145905,407.708557 507.450165,407.233826 506.979004,407.780396
	C502.774963,412.657013 498.879272,417.799469 494.692383,422.904785
	C494.492004,422.946014 494.088745,423.015045 494.088745,423.015045
	C492.683685,421.928223 491.278595,420.841431 490.284821,420.072723
	C483.497498,423.433472 477.090393,427.168762 470.272247,429.864471
	C456.187164,435.433380 442.370178,434.483490 428.606689,427.781281
	C413.290894,420.323151 403.669678,408.486359 400.694611,392.012939
	C396.447754,368.497742 403.453430,348.476654 421.841888,332.824677
	C422.835571,331.978821 424.630676,331.304718 425.818787,331.575806
	C437.924286,334.337982 449.997040,337.250458 462.033203,340.301422
	C463.688080,340.720947 465.093506,342.124634 466.309418,343.492371
	C459.990265,343.581421 453.976135,343.250763 447.729462,342.970215
	C447.496918,343.020294 447.041992,343.159576 446.704987,343.085449
	C445.910522,343.036102 445.453033,343.060883 444.613647,343.040405
	C442.424591,343.638062 440.598114,344.231506 438.813965,344.932678
	C432.444672,347.435974 426.294464,350.249908 422.646667,356.948914
	C421.895203,358.028809 421.428162,358.947113 420.639282,360.038086
	C419.188751,363.083435 418.059998,365.956085 416.576141,369.012909
	C413.488190,376.452850 414.576080,383.722809 416.157959,391.330200
	C416.734833,392.805023 417.294128,393.944214 417.897339,395.448700
	C420.226654,402.252930 424.684875,406.985016 430.097961,411.401367
	C435.580078,414.028992 440.710632,417.429932 446.272827,418.429810
	C456.978424,420.354156 467.483765,419.146454 476.373230,411.062653
	C480.738586,405.284149 484.784821,399.629425 488.910950,393.606445
	C489.273560,391.826019 489.556366,390.413849 489.920349,388.581116
	C490.047577,382.756104 490.093536,377.351685 490.094604,371.543213
	C487.731262,366.062378 485.412811,360.985565 483.076538,355.937256
	C483.058746,355.965759 483.125580,355.973083 483.026367,355.719482
	C482.629425,355.275055 482.331665,355.084198 481.907410,354.584625
	C479.865356,352.782593 477.949738,351.289337 475.900116,349.504395
	C474.553680,348.171906 473.341248,347.131104 472.128815,346.090302
	C477.316681,349.447754 482.880280,352.351044 487.609192,356.263245
	C495.854889,363.084778 501.996979,371.717468 506.652527,381.380341
	C507.200470,382.517700 508.009674,383.529205 509.290741,385.520935
	C510.803314,383.016785 512.137268,381.237732 513.028809,379.259308
	C517.333008,369.708099 523.888794,361.925659 531.728638,355.142914
	C532.423828,354.541412 533.504517,354.385529 534.649292,354.290741
	C534.563904,354.990356 534.235352,355.421906 533.603638,356.021057
	C532.185791,358.079346 531.071045,359.970032 529.632263,362.039307
	C527.585083,367.811646 525.862061,373.405426 524.068359,379.416809
	C524.374817,382.571350 524.751953,385.308289 525.168213,388.371094
	C525.756409,389.820526 526.305420,390.944061 526.908447,392.450012
	C527.303833,393.902008 527.401611,395.148224 528.027405,396.011688
	C531.246582,400.453491 534.601501,404.796906 538.046448,409.483246
	C542.057007,414.149078 547.333679,415.646942 552.661682,417.360138
	C565.951416,421.633331 578.282471,418.459595 586.440125,410.123840
	C593.746521,405.077576 597.980469,398.331818 599.937439,389.620728
	C602.102234,381.499512 600.676880,374.116302 598.027344,366.475220
	C595.221863,359.455078 591.243835,353.744965 584.892700,349.480011
	C579.312927,346.909637 574.050293,343.467529 568.428528,342.717224
	C562.456482,341.920227 556.143738,343.676178 549.979736,344.317322
z"/>
<path fill="#C89025" opacity="1.000000" stroke="none"
	d="
M422.931061,356.787354
	C426.294464,350.249908 432.444672,347.435974 438.813965,344.932678
	C440.598114,344.231506 442.424591,343.638062 444.523743,343.319061
	C446.699158,345.045502 448.977844,347.945770 450.392334,347.572327
	C454.796051,346.409729 457.398102,348.281982 459.699585,351.261414
	C462.181580,354.474548 464.944977,353.785950 468.027130,352.466705
	C471.300629,351.065521 471.773071,348.655548 470.897675,345.602478
	C471.130341,345.613739 471.363007,345.625031 471.862244,345.863281
	C473.341248,347.131104 474.553680,348.171906 475.750214,349.822144
	C474.616302,352.037109 473.668793,353.804474 472.337372,355.207489
	C470.650604,356.984924 468.651703,358.466156 466.433380,360.054504
	C463.372864,358.646729 460.666412,357.259583 457.777466,355.663269
	C457.083862,355.254089 456.572754,355.054138 455.951935,354.498596
	C455.297028,353.554443 454.761597,352.465942 454.205139,352.455109
	C448.903046,352.351807 443.221375,349.200409 438.566956,354.712097
	C437.149475,356.390686 434.836639,357.842651 432.707916,358.268127
	C429.447021,358.919891 425.375305,362.294769 422.931061,356.787354
z"/>
<path fill="#D39E31" opacity="1.000000" stroke="none"
	d="
M533.906799,355.853485
	C534.235352,355.421906 534.563904,354.990356 535.017090,354.307343
	C535.141663,354.055878 535.053650,354.008362 535.256592,353.980225
	C535.788513,353.780579 535.920349,353.512329 535.854980,353.147308
	C540.436951,350.398224 545.018921,347.649109 549.790283,344.608643
	C556.143738,343.676178 562.456482,341.920227 568.428528,342.717224
	C574.050293,343.467529 579.312927,346.909637 584.633179,349.755493
	C578.771362,353.323181 572.433411,353.828247 566.907410,351.127106
	C561.442139,348.455597 556.798706,349.412537 552.421082,352.012238
	C546.550537,355.498627 540.390442,356.097687 533.906799,355.853485
z"/>
<path fill="#E3B341" opacity="1.000000" stroke="none"
	d="
M523.085815,428.191864
	C521.500610,430.949677 519.915344,433.707458 517.674683,436.726379
	C511.629395,437.022400 506.239532,437.057312 500.849701,437.092224
	C499.225159,434.378296 497.600647,431.664337 496.141235,428.380127
	C502.187378,427.212494 508.059387,426.489899 513.952881,426.065765
	C517.367249,425.820038 520.816223,426.054657 524.249634,426.073120
	C524.209045,426.249756 524.168518,426.426361 523.806946,426.986267
	C523.287048,427.611786 523.153687,427.885895 523.085815,428.191864
z"/>
<path fill="#DEAD3C" opacity="1.000000" stroke="none"
	d="
M524.464844,425.945251
	C520.816223,426.054657 517.367249,425.820038 513.952881,426.065765
	C508.059387,426.489899 502.187378,427.212494 496.071533,428.042175
	C495.184814,426.704193 494.532928,425.133911 493.984894,423.289368
	C494.088745,423.015045 494.492004,422.946014 495.070435,422.873901
	C500.601959,421.590210 505.512817,420.139008 510.523743,419.255280
	C513.619202,418.709351 516.867065,419.027527 520.046509,418.957703
	C521.701843,420.647766 523.357178,422.337830 525.331299,424.061462
	C525.326721,424.669159 525.003418,425.243256 524.464844,425.945251
z"/>
<path fill="#BE8620" opacity="1.000000" stroke="none"
	d="
M470.655090,345.384705
	C471.773071,348.655548 471.300629,351.065521 468.027130,352.466705
	C464.944977,353.785950 462.181580,354.474548 459.699585,351.261414
	C457.398102,348.281982 454.796051,346.409729 450.392334,347.572327
	C448.977844,347.945770 446.699158,345.045502 444.905701,343.364258
	C445.453033,343.060883 445.910522,343.036102 446.827728,343.160095
	C447.593018,343.352020 447.817871,343.222473 447.962006,342.920105
	C453.976135,343.250763 459.990265,343.581421 466.397156,343.801453
	C467.997467,344.182892 469.204987,344.674927 470.655090,345.384705
z"/>
<path fill="#D39E31" opacity="1.000000" stroke="none"
	d="
M500.915283,437.442078
	C506.239532,437.057312 511.629395,437.022400 517.448486,436.977234
	C515.121277,441.609192 512.364807,446.251373 509.055725,451.824158
	C506.092773,446.675232 503.536835,442.233551 500.915283,437.442078
z"/>
<path fill="#DEAD3C" opacity="1.000000" stroke="none"
	d="
M523.286377,428.057526
	C523.153687,427.885895 523.287048,427.611786 523.650146,427.208313
	C523.855103,427.395081 523.745972,427.687134 523.286377,428.057526
z"/>
<path fill="#000000" opacity="1.000000" stroke="none"
	d="
M535.658936,353.246582
	C535.920349,353.512329 535.788513,353.780579 535.229370,354.022156
	C535.116333,353.820190 535.270935,353.571381 535.658936,353.246582
z"/>
<path fill="#C89025" opacity="1.000000" stroke="none"
	d="
M603.155884,615.920471
	C601.568970,617.962830 599.922974,619.684509 598.081299,621.691772
	C589.144104,605.435730 586.130188,587.843506 588.127930,569.302856
	C590.708801,585.537476 594.913696,601.207703 603.155884,615.920471
z"/>
<path fill="#BE8620" opacity="1.000000" stroke="none"
	d="
M586.093750,410.208191
	C578.282471,418.459595 565.951416,421.633331 552.661682,417.360138
	C547.333679,415.646942 542.057007,414.149078 537.944824,409.141449
	C536.451477,405.732574 538.273682,404.877747 540.374573,404.429291
	C545.200195,403.399323 550.053040,402.496521 555.254822,401.607117
	C560.072876,401.630981 564.530823,401.589813 569.364014,401.720764
	C575.190674,404.664642 580.642212,407.436432 586.093750,410.208191
z"/>
<path fill="#BE8620" opacity="1.000000" stroke="none"
	d="
M476.054108,411.186401
	C467.483765,419.146454 456.978424,420.354156 446.272827,418.429810
	C440.710632,417.429932 435.580078,414.028992 430.206604,411.066467
	C436.433716,407.457245 442.708801,404.494202 449.336914,401.579529
	C454.474792,401.493073 459.259613,401.358215 464.317780,401.408508
	C468.931915,404.170105 474.220551,405.613892 476.054108,411.186401
z"/>
<path fill="#E3B341" opacity="1.000000" stroke="none"
	d="
M533.603638,356.021057
	C540.390442,356.097687 546.550537,355.498627 552.421082,352.012238
	C556.798706,349.412537 561.442139,348.455597 566.907410,351.127106
	C572.433411,353.828247 578.771362,353.323181 584.792358,350.068054
	C591.243835,353.744965 595.221863,359.455078 597.913391,366.815552
	C597.333801,367.903473 596.798218,368.670502 596.370728,368.614349
	C589.511902,367.713531 582.937866,366.328339 577.544617,361.272400
	C575.644348,359.490906 572.454285,359.085266 569.439880,358.017273
	C560.343323,355.181122 552.817932,357.459442 545.854370,362.931580
	C542.027161,359.377350 538.749146,363.188934 535.317749,363.069794
	C533.518738,363.007324 531.742737,362.285034 529.956299,361.860718
	C531.071045,359.970032 532.185791,358.079346 533.603638,356.021057
z"/>
<path fill="#EDC14E" opacity="1.000000" stroke="none"
	d="
M416.140350,390.994537
	C414.576080,383.722809 413.488190,376.452850 417.020020,369.058258
	C421.765015,368.181488 425.715118,367.464417 429.655731,366.698334
	C432.361633,366.172272 435.054321,365.578094 437.620178,365.323792
	C430.352448,377.271484 431.404510,386.816498 440.945374,397.295654
	C440.938110,397.519897 440.972504,397.967285 440.596222,397.978119
	C437.334564,396.018951 434.251221,394.281616 431.605347,392.030151
	C426.220154,387.447784 419.232178,386.835327 416.140350,390.994537
z"/>
<path fill="#D39E31" opacity="1.000000" stroke="none"
	d="
M586.440125,410.123840
	C580.642212,407.436432 575.190674,404.664642 569.676880,401.517242
	C577.285217,397.779480 582.148743,392.025513 584.649170,383.945007
	C588.296265,384.965729 591.626160,385.827850 594.817078,387.052277
	C596.618530,387.743561 598.191101,389.031036 599.866821,390.049927
	C597.980469,398.331818 593.746521,405.077576 586.440125,410.123840
z"/>
<path fill="#EDC14E" opacity="1.000000" stroke="none"
	d="
M599.937439,389.620728
	C598.191101,389.031036 596.618530,387.743561 594.817078,387.052277
	C591.626160,385.827850 588.296265,384.965729 584.650818,383.491272
	C586.067688,370.893860 579.092773,363.818756 569.853088,358.051422
	C572.454285,359.085266 575.644348,359.490906 577.544617,361.272400
	C582.937866,366.328339 589.511902,367.713531 596.370728,368.614349
	C596.798218,368.670502 597.333801,367.903473 597.933044,367.179077
	C600.676880,374.116302 602.102234,381.499512 599.937439,389.620728
z"/>
<path fill="#EDC14E" opacity="1.000000" stroke="none"
	d="
M529.632202,362.039307
	C531.742737,362.285034 533.518738,363.007324 535.317749,363.069794
	C538.749146,363.188934 542.027161,359.377350 545.722290,363.237854
	C541.591797,368.389984 539.638611,373.923065 538.491577,379.997498
	C533.406738,379.669067 528.772888,379.334137 524.139038,378.999207
	C525.862061,373.405426 527.585083,367.811646 529.632202,362.039307
z"/>
<path fill="#EDC14E" opacity="1.000000" stroke="none"
	d="
M490.139496,371.947296
	C490.093536,377.351685 490.047577,382.756104 489.563599,388.507202
	C485.392456,387.903961 481.659332,386.954010 477.931824,385.543274
	C477.245392,379.807007 476.553284,374.531525 476.097382,369.032288
	C480.935547,369.854767 485.537537,370.901031 490.139496,371.947296
z"/>
<path fill="#D39E31" opacity="1.000000" stroke="none"
	d="
M440.972504,397.967285
	C440.972504,397.967285 440.938110,397.519897 441.265594,397.409302
	C444.056671,398.709534 446.520264,400.120361 448.983856,401.531189
	C442.708801,404.494202 436.433716,407.457245 430.049988,410.755157
	C424.684875,406.985016 420.226654,402.252930 418.239746,395.301025
	C420.375183,394.991150 422.302734,394.907898 424.030914,395.454773
	C428.091797,396.739685 431.988220,398.599670 436.099945,399.637848
	C437.494598,399.989990 439.335510,398.574829 440.972504,397.967285
z"/>
<path fill="#D39E31" opacity="1.000000" stroke="none"
	d="
M519.915649,418.639099
	C516.867065,419.027527 513.619202,418.709351 510.523743,419.255280
	C505.512817,420.139008 500.601959,421.590210 495.270813,422.832672
	C498.879272,417.799469 502.774963,412.657013 506.979004,407.780396
	C507.450165,407.233826 510.145905,407.708557 510.991089,408.541077
	C514.108704,411.611664 516.881958,415.031799 519.915649,418.639099
z"/>
<path fill="#D39E31" opacity="1.000000" stroke="none"
	d="
M476.373230,411.062653
	C474.220551,405.613892 468.931915,404.170105 464.590332,401.251007
	C465.353485,400.587646 466.117371,400.266998 467.295471,399.948853
	C469.445679,399.547424 471.204712,399.222443 472.913452,398.724854
	C478.229553,397.176605 483.526642,395.562988 488.831085,393.974701
	C484.784821,399.629425 480.738586,405.284149 476.373230,411.062653
z"/>
<path fill="#E3B341" opacity="1.000000" stroke="none"
	d="
M437.752899,365.014343
	C435.054321,365.578094 432.361633,366.172272 429.655731,366.698334
	C425.715118,367.464417 421.765015,368.181488 417.375061,368.874115
	C418.059998,365.956085 419.188751,363.083435 420.726501,360.406616
	C422.747131,361.324890 424.351257,362.607269 425.972229,362.628937
	C428.032318,362.656464 430.081940,361.537628 432.178253,361.130035
	C440.277863,359.554993 447.072937,353.019165 456.061676,354.854187
	C456.572754,355.054138 457.083862,355.254089 457.365112,355.729553
	C449.663513,356.833160 442.519257,358.365845 437.752899,365.014343
z"/>
<path fill="#E3B341" opacity="1.000000" stroke="none"
	d="
M490.094604,371.543213
	C485.537537,370.901031 480.935547,369.854767 475.813049,368.856628
	C473.490234,366.948608 471.688019,364.992432 470.282532,363.024109
	C475.151794,361.228241 480.785797,361.474640 483.094360,355.908752
	C485.412811,360.985565 487.731262,366.062378 490.094604,371.543213
z"/>
<path fill="#E3B341" opacity="1.000000" stroke="none"
	d="
M524.068359,379.416809
	C528.772888,379.334137 533.406738,379.669067 538.586548,380.380402
	C539.627625,387.545441 542.859741,392.941895 547.489258,397.639832
	C547.310791,397.742828 546.999756,398.013245 546.635620,397.994446
	C543.790405,395.533539 541.045959,393.300934 538.893677,390.597046
	C536.108704,387.098297 528.538513,385.458679 525.129089,388.045197
	C524.751953,385.308289 524.374817,382.571350 524.068359,379.416809
z"/>
<path fill="#C89025" opacity="1.000000" stroke="none"
	d="
M554.894775,401.542084
	C550.053040,402.496521 545.200195,403.399323 540.374573,404.429291
	C538.273682,404.877747 536.451477,405.732574 537.807373,408.832916
	C534.601501,404.796906 531.246582,400.453491 528.027405,396.011688
	C527.401611,395.148224 527.303833,393.902008 527.281128,392.455444
	C529.219971,392.820862 530.932678,393.412445 532.440796,394.337616
	C535.371765,396.135712 538.101135,398.272186 541.078491,399.982086
	C543.564697,401.409851 545.869934,401.202057 546.999756,398.013245
	C546.999756,398.013245 547.310791,397.742828 547.782349,397.788300
	C550.467468,399.069885 552.681152,400.305969 554.894775,401.542084
z"/>
<path fill="#DEAD3C" opacity="1.000000" stroke="none"
	d="
M488.910950,393.606445
	C483.526642,395.562988 478.229553,397.176605 472.913452,398.724854
	C471.204712,399.222443 469.445679,399.547424 467.477173,399.660950
	C470.805176,394.915039 474.365662,390.459564 477.926178,386.004089
	C481.659332,386.954010 485.392456,387.903961 489.482361,388.927795
	C489.556366,390.413849 489.273560,391.826019 488.910950,393.606445
z"/>
<path fill="#DEAD3C" opacity="1.000000" stroke="none"
	d="
M440.596222,397.978119
	C439.335510,398.574829 437.494598,399.989990 436.099945,399.637848
	C431.988220,398.599670 428.091797,396.739685 424.030914,395.454773
	C422.302734,394.907898 420.375183,394.991150 418.195801,394.935730
	C417.294128,393.944214 416.734833,392.805023 416.157959,391.330200
	C419.232178,386.835327 426.220154,387.447784 431.605347,392.030151
	C434.251221,394.281616 437.334564,396.018951 440.596222,397.978119
z"/>
<path fill="#D39E31" opacity="1.000000" stroke="none"
	d="
M546.635620,397.994446
	C545.869934,401.202057 543.564697,401.409851 541.078491,399.982086
	C538.101135,398.272186 535.371765,396.135712 532.440796,394.337616
	C530.932678,393.412445 529.219971,392.820862 527.227051,392.073059
	C526.305420,390.944061 525.756409,389.820526 525.168213,388.371094
	C528.538513,385.458679 536.108704,387.098297 538.893677,390.597046
	C541.045959,393.300934 543.790405,395.533539 546.635620,397.994446
z"/>
<path fill="#D39E31" opacity="1.000000" stroke="none"
	d="
M455.951935,354.498596
	C447.072937,353.019165 440.277863,359.554993 432.178253,361.130035
	C430.081940,361.537628 428.032318,362.656464 425.972229,362.628937
	C424.351257,362.607269 422.747131,361.324890 421.048309,360.233948
	C421.428162,358.947113 421.895203,358.028809 422.646667,356.948914
	C425.375305,362.294769 429.447021,358.919891 432.707916,358.268127
	C434.836639,357.842651 437.149475,356.390686 438.566956,354.712097
	C443.221375,349.200409 448.903046,352.351807 454.205139,352.455109
	C454.761597,352.465942 455.297028,353.554443 455.951935,354.498596
z"/>
<path fill="#DEAD3C" opacity="1.000000" stroke="none"
	d="
M483.076538,355.937256
	C480.785797,361.474640 475.151794,361.228241 469.992493,362.907959
	C468.466278,361.894348 467.626862,360.984741 466.787445,360.075165
	C468.651703,358.466156 470.650604,356.984924 472.337372,355.207489
	C473.668793,353.804474 474.616302,352.037109 475.884216,350.113831
	C477.949738,351.289337 479.865356,352.782593 482.057556,354.794281
	C482.597961,355.532837 482.861786,355.752960 483.125580,355.973083
	C483.125580,355.973083 483.058746,355.965759 483.076538,355.937256
z"/>
<path fill="#C89025" opacity="1.000000" stroke="none"
	d="
M447.729462,342.970215
	C447.817871,343.222473 447.593018,343.352020 447.164734,343.234192
	C447.041992,343.159576 447.496918,343.020294 447.729462,342.970215
z"/>
<path fill="#E3B341" opacity="1.000000" stroke="none"
	d="
M483.026367,355.719482
	C482.861786,355.752960 482.597961,355.532837 482.184021,355.103027
	C482.331665,355.084198 482.629425,355.275055 483.026367,355.719482
z"/>
<path fill="#050403" opacity="1.000000" stroke="none"
	d="
M466.433380,360.054504
	C467.626862,360.984741 468.466278,361.894348 469.595734,362.920105
	C471.688019,364.992432 473.490234,366.948608 475.576843,369.080444
	C476.553284,374.531525 477.245392,379.807007 477.931824,385.543274
	C474.365662,390.459564 470.805176,394.915039 467.062988,399.658447
	C466.117371,400.266998 465.353485,400.587646 464.317017,401.065796
	C459.259613,401.358215 454.474792,401.493073 449.336914,401.579559
	C446.520264,400.120361 444.056671,398.709534 441.272827,397.185059
	C431.404510,386.816498 430.352448,377.271484 437.620178,365.323792
	C442.519257,358.365845 449.663513,356.833160 457.547638,355.938782
	C460.666412,357.259583 463.372864,358.646729 466.433380,360.054504
z"/>
<path fill="#050403" opacity="1.000000" stroke="none"
	d="
M555.254822,401.607117
	C552.681152,400.305969 550.467468,399.069885 547.960754,397.685303
	C542.859741,392.941895 539.627625,387.545441 539.037537,380.373901
	C539.638611,373.923065 541.591797,368.389984 545.952393,363.518616
	C552.817932,357.459442 560.343323,355.181122 569.439880,358.017273
	C579.092773,363.818756 586.067688,370.893860 584.275452,383.484314
	C582.148743,392.025513 577.285217,397.779480 569.301758,401.345123
	C564.530823,401.589813 560.072876,401.630981 555.254822,401.607117
z"/>
</svg>
